<?xml version="1.0" encoding="utf-8"?>
<!-- Generator: Adobe Illustrator 27.7.0, SVG Export Plug-In . SVG Version: 6.00 Build 0)  -->
<svg version="1.1" id="Layer_1" xmlns="http://www.w3.org/2000/svg" xmlns:xlink="http://www.w3.org/1999/xlink" x="0px" y="0px"
	 viewBox="0 0 600 600" style="enable-background:new 0 0 600 600;" xml:space="preserve">
<style type="text/css">
	.st0{fill:#FFDE17;}
	.st1{fill:#BE1E2D;}
	.st2{fill:#FFFFFF;}
	.st3{fill:#21409A;}
	.st4{fill:url(#SVGID_1_);}
	.st5{fill:url(#SVGID_00000101784003956818367360000013663500670289768369_);}
	.st6{clip-path:url(#SVGID_00000099658944428242425470000003187683226892040862_);}
	.st7{fill:#0ED5BD;}
	.st8{fill:#F23F73;}
	.st9{fill:#B5FBC9;}
	.st10{fill:#FFDB7B;}
	.st11{fill:#0F1401;}
</style>
<g>
	<path class="st7" d="M227.08,199.23c15.15,8.88,26.39,21.16,33.7,36.84v-46.5H363.2V482.7H260.78v-46.5
		c-7.32,15.68-18.55,27.95-33.7,36.84c-15.15,8.88-33.01,13.32-53.56,13.32c-23.34,0-44.41-6.01-63.23-18.03
		c-18.81-12.02-33.62-29.43-44.41-52.25c-10.8-22.81-16.2-49.55-16.2-80.21c0-30.65,5.4-57.3,16.2-79.94
		c10.79-22.64,25.6-39.97,44.41-51.99c18.81-12.02,39.88-18.03,63.23-18.03C194.07,185.91,211.93,190.35,227.08,199.23z
		 M168.56,291.72c-9.93,10.63-14.89,25.34-14.89,44.15c0,19.16,4.96,34.05,14.89,44.68c9.93,10.63,22.9,15.94,38.93,15.94
		c15.32,0,28.04-5.4,38.14-16.2c10.1-10.79,15.15-25.6,15.15-44.41c0-18.46-5.05-33.09-15.15-43.89
		c-10.11-10.79-22.82-16.2-38.14-16.2C191.46,275.78,178.49,281.09,168.56,291.72z"/>
	<path class="st8" d="M561.06,113.64v81.84h-99.57v287.23H359.32V195.48h-98.52v-81.84H561.06z"/>
</g>
</svg>
