<?xml version="1.0" encoding="utf-8"?>
<!-- Generator: Adobe Illustrator 27.7.0, SVG Export Plug-In . SVG Version: 6.00 Build 0)  -->
<svg version="1.1" id="Layer_1" xmlns="http://www.w3.org/2000/svg" xmlns:xlink="http://www.w3.org/1999/xlink" x="0px" y="0px"
	 viewBox="0 0 1289 314" style="enable-background:new 0 0 1289 314;" xml:space="preserve">
<style type="text/css">
	.st0{fill:#FFDE17;}
	.st1{fill:#BE1E2D;}
	.st2{fill:#FFFFFF;}
	.st3{fill:#21409A;}
	.st4{fill:url(#SVGID_1_);}
	.st5{fill:url(#SVGID_00000163059666613821612510000000376853590265058952_);}
	.st6{clip-path:url(#SVGID_00000025425280253869395640000017943502494285476486_);}
	.st7{fill:#0ED5BD;}
	.st8{fill:#F23F73;}
	.st9{fill:#B5FBC9;}
	.st10{fill:#FFDB7B;}
	.st11{fill:#0F1401;}
</style>
<g>
	<path class="st7" d="M121.89,127.65c6.19,3.63,10.78,8.64,13.77,15.05v-19h41.83v119.74h-41.83v-19
		c-2.99,6.4-7.58,11.42-13.77,15.05c-6.19,3.63-13.48,5.44-21.88,5.44c-9.53,0-18.14-2.46-25.83-7.36
		c-7.68-4.91-13.73-12.02-18.14-21.34c-4.41-9.32-6.62-20.24-6.62-32.76c0-12.52,2.2-23.41,6.62-32.66
		c4.41-9.25,10.46-16.33,18.14-21.24c7.68-4.91,16.29-7.36,25.83-7.36C108.41,122.21,115.7,124.02,121.89,127.65z M97.99,165.43
		c-4.06,4.34-6.08,10.35-6.08,18.04c0,7.83,2.03,13.91,6.08,18.25c4.06,4.34,9.35,6.51,15.9,6.51c6.26,0,11.45-2.21,15.58-6.62
		c4.13-4.41,6.19-10.46,6.19-18.14c0-7.54-2.06-13.52-6.19-17.93c-4.13-4.41-9.32-6.62-15.58-6.62
		C107.34,158.92,102.04,161.09,97.99,165.43z"/>
	<path class="st7" d="M242.59,85.5v157.95h-42.05V85.5H242.59z"/>
	<path class="st7" d="M337.15,207.59v35.86h-17.29c-14.66,0-26.11-3.63-34.36-10.89c-8.25-7.26-12.38-19.28-12.38-36.07v-37.78
		h-15.37v-35h15.37V94.67h42.05v29.03h21.56v35h-21.56v38.63c0,3.7,0.82,6.33,2.45,7.9c1.63,1.57,4.38,2.35,8.22,2.35H337.15z"/>
	<path class="st7" d="M422.63,127.65c6.19,3.63,10.78,8.64,13.77,15.05v-19h41.83v119.74H436.4v-19
		c-2.99,6.4-7.58,11.42-13.77,15.05c-6.19,3.63-13.48,5.44-21.88,5.44c-9.54,0-18.14-2.46-25.83-7.36
		c-7.68-4.91-13.73-12.02-18.14-21.34c-4.41-9.32-6.62-20.24-6.62-32.76c0-12.52,2.2-23.41,6.62-32.66
		c4.41-9.25,10.46-16.33,18.14-21.24c7.68-4.91,16.29-7.36,25.83-7.36C409.15,122.21,416.44,124.02,422.63,127.65z M398.72,165.43
		c-4.06,4.34-6.08,10.35-6.08,18.04c0,7.83,2.03,13.91,6.08,18.25c4.05,4.34,9.35,6.51,15.9,6.51c6.26,0,11.45-2.21,15.58-6.62
		c4.13-4.41,6.19-10.46,6.19-18.14c0-7.54-2.06-13.52-6.19-17.93c-4.13-4.41-9.32-6.62-15.58-6.62
		C408.08,158.92,402.78,161.09,398.72,165.43z"/>
	<path class="st8" d="M615.04,92.33v33.51h-40.77v117.61h-41.83V125.84H492.1V92.33H615.04z"/>
	<path class="st8" d="M632.33,75.14c4.55-4.05,10.53-6.08,17.93-6.08c7.4,0,13.3,2.03,17.72,6.08c4.41,4.06,6.62,9.21,6.62,15.47
		c0,5.98-2.24,10.96-6.72,14.94c-4.48,3.99-10.35,5.98-17.61,5.98c-7.4,0-13.38-1.99-17.93-5.98c-4.56-3.98-6.83-8.96-6.83-14.94
		C625.5,84.36,627.78,79.2,632.33,75.14z M670.97,123.7v119.74h-42.05V123.7H670.97z"/>
	<path class="st8" d="M808.21,191.15h-79.19c0.71,13.52,6.62,20.28,17.72,20.28c4.12,0,7.54-0.99,10.25-2.99
		c2.7-1.99,4.55-4.62,5.55-7.9h44.4c-1.57,8.4-5.05,15.98-10.46,22.73c-5.41,6.76-12.24,12.06-20.49,15.9
		c-8.25,3.84-17.29,5.76-27.11,5.76c-11.95,0-22.52-2.46-31.7-7.36c-9.18-4.91-16.33-12.02-21.45-21.34
		c-5.12-9.32-7.68-20.24-7.68-32.76c0-12.52,2.56-23.41,7.68-32.66c5.12-9.25,12.31-16.33,21.56-21.24
		c9.25-4.91,19.78-7.36,31.59-7.36c11.95,0,22.48,2.42,31.59,7.26c9.1,4.84,16.18,11.74,21.24,20.7c5.05,8.96,7.58,19.35,7.58,31.16
		C809.28,184.32,808.92,187.6,808.21,191.15z M761.68,159.77c-3.42-3.13-7.68-4.7-12.81-4.7c-5.55,0-10.07,1.57-13.55,4.7
		c-3.49,3.13-5.52,7.76-6.08,13.87h37.35C766.73,167.53,765.09,162.91,761.68,159.77z"/>
	<path class="st8" d="M938.62,136.4c7.82,9.18,11.74,21.66,11.74,37.46v69.58h-41.62V179.2c0-6.97-1.81-12.41-5.44-16.33
		c-3.63-3.91-8.5-5.87-14.62-5.87c-6.26,0-11.24,2.03-14.94,6.08c-3.7,4.06-5.55,9.64-5.55,16.76v63.61h-42.05V123.7h42.05v20.06
		c3.42-6.4,8.39-11.53,14.94-15.37c6.54-3.84,14.23-5.76,23.05-5.76C919.98,122.64,930.79,127.22,938.62,136.4z"/>
	<path class="st8" d="M1038.94,127.65c6.12,3.63,10.67,8.64,13.66,15.05V85.5h42.05v157.95h-42.05v-19
		c-2.99,6.4-7.54,11.42-13.66,15.05c-6.12,3.63-13.38,5.44-21.77,5.44c-9.54,0-18.14-2.46-25.83-7.36
		c-7.68-4.91-13.73-12.02-18.14-21.34c-4.41-9.32-6.62-20.24-6.62-32.76c0-12.52,2.2-23.41,6.62-32.66
		c4.41-9.25,10.46-16.33,18.14-21.24c7.68-4.91,16.29-7.36,25.83-7.36C1025.56,122.21,1032.82,124.02,1038.94,127.65z
		 M1015.14,165.43c-4.06,4.34-6.08,10.35-6.08,18.04c0,7.83,2.03,13.91,6.08,18.25c4.05,4.34,9.35,6.51,15.9,6.51
		c6.26,0,11.45-2.21,15.58-6.62c4.13-4.41,6.19-10.46,6.19-18.14c0-7.54-2.06-13.52-6.19-17.93c-4.13-4.41-9.32-6.62-15.58-6.62
		C1024.49,158.92,1019.19,161.09,1015.14,165.43z"/>
	<path class="st8" d="M1183.97,127.65c6.19,3.63,10.78,8.64,13.77,15.05v-19h41.83v119.74h-41.83v-19
		c-2.99,6.4-7.58,11.42-13.77,15.05c-6.19,3.63-13.48,5.44-21.88,5.44c-9.54,0-18.14-2.46-25.83-7.36
		c-7.68-4.91-13.73-12.02-18.14-21.34c-4.41-9.32-6.62-20.24-6.62-32.76c0-12.52,2.2-23.41,6.62-32.66
		c4.41-9.25,10.46-16.33,18.14-21.24c7.68-4.91,16.29-7.36,25.83-7.36C1170.49,122.21,1177.78,124.02,1183.97,127.65z
		 M1160.06,165.43c-4.06,4.34-6.08,10.35-6.08,18.04c0,7.83,2.03,13.91,6.08,18.25c4.05,4.34,9.35,6.51,15.9,6.51
		c6.26,0,11.45-2.21,15.58-6.62c4.13-4.41,6.19-10.46,6.19-18.14c0-7.54-2.06-13.52-6.19-17.93c-4.13-4.41-9.32-6.62-15.58-6.62
		C1169.42,158.92,1164.12,161.09,1160.06,165.43z"/>
</g>
</svg>
